<svg xmlns="http://www.w3.org/2000/svg" xmlns:xlink="http://www.w3.org/1999/xlink" width="20" height="20" viewBox="0 0 96 96">
  <defs>
    <clipPath id="clip-search-brain_96px">
      <rect width="96" height="96"/>
    </clipPath>
  </defs>
  <g id="search-brain_96px" data-name="search-brain 96px" clip-path="url(#clip-search-brain_96px)">
    <rect width="96" height="96" fill="rgba(255,255,255,0)"/>
    <g id="Group_3255" data-name="Group 3255" transform="translate(-6.697 -2.566)">
      <g id="Group_3254" data-name="Group 3254" transform="translate(8.697 2.566)">
        <path id="Subtraction_103" data-name="Subtraction 103" d="M71.054,96H1.89A1.892,1.892,0,0,1,0,94.11V1.889A1.892,1.892,0,0,1,1.89,0H48a1.9,1.9,0,0,1,1.336.554L72.391,23.609l0,0,.006.006,0,0,.006.006.006.007,0,0,0,0,.007.007,0,0,0,.006a1.885,1.885,0,0,1,.5,1.2c0,.032,0,.064,0,.1V40.871a26.18,26.18,0,0,0-3.78-4.232v-9.8H48a1.939,1.939,0,0,1-.293-.022c-.066.005-.13.008-.189.008a2.162,2.162,0,0,1-2.159-2.16V3.78H3.78V92.22H69.165V75.3a26.181,26.181,0,0,0,3.78-4.232V94.11A1.892,1.892,0,0,1,71.054,96ZM49.679,6.242V23.055H66.492ZM32.937,73.905H11.666v-5.4H28.977a26.1,26.1,0,0,0,3.957,5.4Zm-2.785-32.4H11.666v-5.4H34.981a26.134,26.134,0,0,0-4.829,5.4Z" transform="translate(0 0)" fill="#95a5b6"/>
        <path id="Subtraction_104" data-name="Subtraction 104" d="M14.572,11.879H0V0H15.022a26.225,26.225,0,0,0-.451,11.878Z" transform="translate(11.666 49.066)" fill="#fa7c90"/>
      </g>
      <g id="magnifying-glass-svgrepo-com" transform="translate(33.65 30.64)">
        <path id="Ellipse_697_-_Outline" data-name="Ellipse 697 - Outline" d="M26.146-1.75A27.888,27.888,0,0,1,45.871,45.872,27.9,27.9,0,1,1,15.287.443,27.723,27.723,0,0,1,26.146-1.75Zm0,52.012A24.123,24.123,0,0,0,35.532,3.924,24.123,24.123,0,0,0,16.759,48.368,23.963,23.963,0,0,0,26.146,50.262Z" transform="translate(1.75 1.75)" fill="#3f7ec7"/>
        <path id="Line_786" data-name="Line 786" d="M19.287,20.156a1.883,1.883,0,0,1-1.3-.517L-1.159,1.512a1.89,1.89,0,0,1,2.6-2.745L20.586,16.893a1.89,1.89,0,0,1-1.3,3.262Z" transform="translate(45.6 47.771)" fill="#3f7ec7"/>
      </g>
      <path id="brain-svgrepo-com" d="M33.212,16.028A6.239,6.239,0,0,0,30.093,10.6a4.679,4.679,0,0,0,0-.811,4.679,4.679,0,0,0-4.679-4.679h-.281a4.679,4.679,0,0,0-7.518-1.9,4.679,4.679,0,0,0-7.518,1.9H9.816A4.679,4.679,0,0,0,5.137,9.789a4.679,4.679,0,0,0,0,.811,6.239,6.239,0,0,0-.858,10.279,6.239,6.239,0,0,0,5.537,9.187H10.1a4.679,4.679,0,0,0,7.518,1.9,4.679,4.679,0,0,0,7.518-1.9h.281a6.239,6.239,0,0,0,5.459-9.187A6.239,6.239,0,0,0,33.212,16.028ZM16.055,12.206a7.361,7.361,0,0,0-1.061-.5,1.564,1.564,0,0,0-1,2.963,3.119,3.119,0,0,1,2.059,2.917V20a7.361,7.361,0,0,0-1.061-.5,1.564,1.564,0,0,0-1,2.963,3.119,3.119,0,0,1,2.059,2.917v3.119a1.554,1.554,0,0,1-2.979.624,6.349,6.349,0,0,0,.749-.515,1.562,1.562,0,0,0-2-2.4A3.1,3.1,0,0,1,7.2,22.173a5.958,5.958,0,0,0,1.061.094,1.56,1.56,0,0,0,0-3.119,2.87,2.87,0,0,1-1.076-.2A3.119,3.119,0,0,1,6.7,13.3a4.835,4.835,0,0,0,.717.546,1.565,1.565,0,0,0,1.56-2.714,1.4,1.4,0,0,1-.53-.515,1.435,1.435,0,0,1-.187-.827,1.56,1.56,0,0,1,1.56-1.56,1.185,1.185,0,0,1,.328,0,6,6,0,0,0,.3.733,1.547,1.547,0,1,0,2.7-1.513,1.653,1.653,0,0,1-.2-.78,1.56,1.56,0,1,1,3.119,0ZM28.05,18.944a2.87,2.87,0,0,1-1.076.2,1.56,1.56,0,0,0,0,3.119,5.958,5.958,0,0,0,1.061-.094,3.109,3.109,0,0,1-4.632,4.04,1.562,1.562,0,0,0-2,2.4,6.349,6.349,0,0,0,.749.515,1.554,1.554,0,0,1-2.979-.624V25.386a3.119,3.119,0,0,1,2.059-2.917,1.564,1.564,0,0,0-1-2.963,7.362,7.362,0,0,0-1.061.5V17.587a3.119,3.119,0,0,1,2.059-2.917,1.564,1.564,0,0,0-1-2.963,7.361,7.361,0,0,0-1.061.5V6.669a1.56,1.56,0,1,1,3.119,0,1.653,1.653,0,0,1-.2.78,1.558,1.558,0,1,0,2.7,1.56,6.005,6.005,0,0,0,.3-.78,1.185,1.185,0,0,1,.328,0,1.55,1.55,0,0,1,1.295,2.418,1.4,1.4,0,0,1-.515.484,1.565,1.565,0,0,0,1.56,2.714,4.149,4.149,0,0,0,.78-.546,3.119,3.119,0,0,1-.421,5.646Z" transform="translate(44.282 41.266)" fill="#ff7c90"/>
    </g>
  </g>
</svg>

